<svg xmlns="http://www.w3.org/2000/svg" width="48" height="48" viewBox="0 0 48 48">
    <g fill="none" stroke="#222" stroke-linecap="square" stroke-miterlimit="10" stroke-width="2" class="nc-icon-wrapper">
        <path d="M22 42C10.954 42 2 33.046 2 22S10.954 2 22 2c8.202 0 15.25 4.937 18.336 12.001"/>
        <path d="M22 12L22 22 12 22"/>
        <ellipse cx="37" cy="24" rx="9" ry="4"/>
        <path stroke-linecap="butt" d="M28 24v6c0 2.209 4.029 4 9 4s9-1.791 9-4v-6"/>
        <path stroke-linecap="butt" d="M28 30v6c0 2.209 4.029 4 9 4s9-1.791 9-4v-6"/>
        <path stroke-linecap="butt" d="M28 36v6c0 2.209 4.029 4 9 4s9-1.791 9-4v-6"/>
    </g>
</svg>
